<svg width="1204" height="275" viewBox="0 0 1204 275" fill="none" xmlns="http://www.w3.org/2000/svg">
<path d="M327.191 252.227C330.875 252.227 332.718 251.252 332.718 249.301C332.718 247.567 331.2 246.7 328.166 246.7C321.881 246.7 317.112 246.267 313.861 245.4C311.911 244.966 310.719 243.991 310.285 242.474C310.068 240.957 309.96 235.863 309.96 227.194V138.439C309.96 132.587 310.068 128.36 310.285 125.759V122.508V116.981H303.069C287.229 116.981 281.567 116.331 267.045 116.981C263.361 117.198 261.519 118.065 261.519 119.582C261.519 121.316 262.711 122.183 265.095 122.183C266.395 122.183 267.479 122.075 268.346 121.858L277.774 121.533C280.158 121.533 281.459 122.075 281.675 123.158C282.109 124.025 282.434 127.168 282.651 132.587L282.976 231.095C282.976 239.114 282.542 243.666 281.675 244.75C281.025 245.616 276.582 246.158 268.346 246.375C264.011 246.375 261.844 247.459 261.844 249.626C261.844 251.143 263.036 251.902 265.42 251.902C266.937 251.902 268.237 251.794 269.321 251.577L303.133 250.927C307.467 250.927 312.886 251.143 319.388 251.577C324.807 252.01 327.407 252.227 327.191 252.227Z" fill="#48416A"/>
<path d="M316.322 84.3838C310.767 82.6394 298.496 75.8564 293.847 62.6797C292.102 68.2343 285.319 80.5057 272.143 85.1549C277.697 86.8993 289.969 93.6823 294.618 106.859C296.362 101.304 303.145 89.033 316.322 84.3838Z" fill="#48416A"/>
<path d="M562.594 252.227C566.279 252.227 568.121 251.252 568.121 249.301C568.121 247.567 566.604 246.7 563.569 246.7C557.284 246.7 552.516 246.267 549.265 245.4C547.314 244.966 546.122 243.991 545.688 242.474C545.472 240.957 545.363 235.863 545.363 227.194V138.439C545.363 132.587 545.472 128.36 545.688 125.759V122.508V116.981H538.473C524.076 116.981 516.97 116.331 502.449 116.981C498.764 117.198 496.922 118.065 496.922 119.582C496.922 121.316 498.114 122.183 500.498 122.183C501.799 122.183 502.882 122.075 503.749 121.858L513.177 121.533C515.562 121.533 516.862 122.075 517.079 123.158C517.512 124.025 517.837 127.168 518.054 132.587L518.379 231.095C518.379 239.114 517.946 243.666 517.079 244.75C516.428 245.617 511.985 246.158 503.749 246.375C499.414 246.375 497.247 247.459 497.247 249.626C497.247 251.143 498.439 251.902 500.823 251.902C502.34 251.902 503.641 251.794 504.725 251.577L538.536 250.927C542.871 250.927 548.289 251.143 554.791 251.577C560.21 252.01 562.811 252.227 562.594 252.227Z" fill="#48416A"/>
<path d="M551.725 84.3838C546.171 82.6394 533.899 75.8565 529.25 62.6798C527.506 68.2343 520.723 80.5057 507.546 85.155C513.101 86.8994 525.372 93.6824 530.021 106.859C531.766 101.304 538.549 89.0331 551.725 84.3838Z" fill="#48416A"/>
<path d="M711.024 119.312C711.024 121.046 708.965 121.913 704.847 121.913C703.329 121.913 701.379 121.804 698.995 121.588H697.044C693.143 121.588 690.108 123.972 687.941 128.74C686.64 132.858 685.34 136.976 684.04 141.094L656.73 224.973C655.213 229.307 653.046 235.918 650.228 244.804C646.76 256.725 643.943 262.685 641.775 262.685C640.258 262.685 638.741 260.626 637.224 256.508C636.14 253.907 635.056 250.981 633.973 247.73C616.417 200.264 607.53 176.64 607.314 176.856C596.043 144.779 589.216 127.331 586.832 124.514C584.881 122.563 581.847 121.696 577.729 121.913L570.251 122.238C568.084 122.238 567 121.371 567 119.637C567 117.903 568.517 117.036 571.552 117.036L594.309 117.686C597.777 117.686 604.604 117.578 614.791 117.361C625.845 117.144 631.588 117.036 632.022 117.036H633.648C635.815 117.036 636.899 117.795 636.899 119.312C636.899 121.046 633.539 121.913 626.82 121.913C620.101 121.913 616.742 122.78 616.742 124.514C616.742 126.898 617.717 130.474 619.668 135.242C623.136 143.912 629.855 162.551 639.825 191.161C644.159 203.949 647.736 213.702 650.553 220.421C656.622 201.131 662.04 184.551 666.809 170.679C676.345 142.503 681.114 127.115 681.114 124.514C681.114 122.563 679.488 121.588 676.237 121.588C674.503 121.588 673.094 121.696 672.01 121.913H669.084C666.267 121.913 664.858 121.046 664.858 119.312C664.858 117.795 666.159 117.036 668.759 117.036L688.916 117.361L701.27 117.036C707.773 116.819 711.024 117.578 711.024 119.312Z" fill="#48416A"/>
<path d="M832.262 213.386C832.65 215.38 831.752 219.279 829.57 225.083C827.548 230.649 825.252 235.337 822.682 239.147C815.814 249.586 805.202 256.201 790.846 258.992C772.902 262.48 756.589 258.926 741.907 248.33C727.425 237.696 718.324 222.808 714.603 203.667C710.728 183.729 713.174 165.976 721.942 150.408C730.91 134.802 743.967 125.332 761.114 121.999C775.27 119.247 787.947 121.128 799.145 127.642C810.305 133.957 817.443 143.536 820.56 156.379C814.374 158.616 805.978 160.662 795.372 162.517L774.378 166.287C772.983 166.559 761.078 169.183 738.664 174.161C738.946 180.934 739.668 187.311 740.831 193.293C744.745 213.431 751.556 228.246 761.265 237.739C771.133 246.995 783.046 250.266 797.003 247.553C804.978 246.002 811.01 242.968 815.097 238.449C819.185 233.93 823.032 226.043 826.638 214.79C827.125 213.04 828.067 212.029 829.463 211.758C831.058 211.448 831.991 211.99 832.262 213.386ZM794.383 157.433C788.935 133.662 778.036 123.365 761.687 126.543C745.537 129.683 737.793 143.603 738.456 168.304L794.383 157.433Z" fill="#48416A"/>
<path d="M951.506 129.219C951.506 134.204 949.989 138.322 946.954 141.573C943.92 144.824 940.019 146.449 935.25 146.449C931.349 146.449 928.098 145.366 925.497 143.198C922.896 140.814 921.596 137.888 921.596 134.42C921.596 131.386 922.571 128.785 924.522 126.618C926.472 124.45 927.448 122.933 927.448 122.066C927.448 118.815 925.064 117.19 920.295 117.19C914.227 117.19 909.025 120.982 904.69 128.568C899.705 137.455 897.213 153.927 897.213 177.985V242.357C897.213 244.958 898.08 246.583 899.813 247.233C901.764 247.884 907.399 248.317 916.719 248.534C919.103 248.967 920.295 249.834 920.295 251.135C920.295 252.652 918.887 253.411 916.069 253.411C911.084 253.411 906.424 253.302 902.089 253.085C897.754 252.869 889.518 252.76 877.381 252.76C871.095 252.76 866.544 252.869 863.726 253.085C860.909 253.302 857.332 253.411 852.998 253.411C849.53 253.411 847.796 252.652 847.796 251.135C847.796 249.618 849.205 248.859 852.022 248.859H856.574C863.943 248.859 868.278 247.992 869.578 246.258C870.012 245.391 870.228 241.381 870.228 234.229V144.824C870.228 132.903 868.386 126.076 864.702 124.342C861.234 122.391 855.598 121.308 847.796 121.091C845.195 121.091 843.895 120.332 843.895 118.815C843.895 117.298 844.978 116.539 847.146 116.539H849.421C852.672 116.539 855.924 116.756 859.175 117.19C862.426 117.406 863.835 117.515 863.401 117.515C871.42 117.515 880.307 115.239 890.06 110.687L894.287 108.737L896.887 107.761C897.754 112.963 898.188 118.165 898.188 123.367V129.869C905.124 114.697 914.877 107.111 927.448 107.111C934.383 107.111 940.127 109.279 944.679 113.613C949.23 117.731 951.506 122.933 951.506 129.219Z" fill="#48416A"/>
<path d="M1065.6 205.055C1066.65 217.03 1063.11 227.638 1054.97 236.879C1047.02 245.896 1036.96 250.938 1024.77 252.003C1017.75 252.618 1008.97 250.89 998.42 246.82C995.61 245.609 993.172 245.095 991.108 245.275C988.217 245.528 986.221 247.679 985.119 251.728C984.51 254.278 983.483 255.616 982.038 255.742C980.592 255.869 979.797 255.106 979.653 253.455C979.563 252.422 979.558 251.175 979.638 249.711C979.896 245.528 979.673 239.41 978.968 231.358C978.914 230.739 978.594 228.271 978.008 223.953C977.422 219.635 977.066 216.754 976.94 215.309L976.642 211.902C976.443 209.631 977.066 208.432 978.512 208.306C980.163 208.162 981.192 209.216 981.597 211.469C983.666 220.857 987.001 228.055 991.599 233.062C1000.8 243.075 1012.31 247.477 1026.14 246.267C1033.58 245.616 1039.38 242.925 1043.54 238.192C1047.7 233.459 1049.47 227.479 1048.83 220.253C1048.13 212.201 1044.99 206.027 1039.41 201.73C1036.29 199.299 1033.44 197.675 1030.87 196.86C1028.49 195.82 1021.33 193.638 1009.39 190.313C985.716 183.647 973.12 171.643 971.602 154.3C970.591 142.739 973.664 132.692 980.824 124.16C987.983 115.628 997.343 110.856 1008.9 109.845C1013.03 109.484 1019.34 110.181 1027.81 111.936C1029.93 112.374 1031.82 112.521 1033.47 112.377C1037.8 111.998 1040.31 109.698 1040.98 105.479C1041.42 103.36 1042.25 102.246 1043.49 102.138C1044.94 102.012 1045.73 102.774 1045.88 104.426C1045.9 104.632 1045.85 105.261 1045.73 106.311L1046.56 119.345C1046.79 124.318 1048 132.222 1050.19 143.056L1050.25 143.675C1050.39 145.327 1049.64 146.225 1047.99 146.369C1046.75 146.478 1044.93 143.516 1042.53 137.485C1039.61 130.251 1035.06 124.616 1028.88 120.58C1022.91 116.525 1016.21 114.823 1008.77 115.474C1001.75 116.088 996.162 118.761 991.999 123.494C987.837 128.227 986.044 133.897 986.622 140.504C987.525 150.827 995.128 158.067 1009.43 162.225C1031.64 168.811 1045.88 174.639 1052.15 179.707C1060.22 186.283 1064.7 194.732 1065.6 205.055Z" fill="#48416A"/>
<path d="M1199.44 218.971C1199.37 221.016 1197.6 224.639 1194.15 229.84C1190.9 234.844 1187.59 238.924 1184.2 242.081C1175.1 250.77 1163.18 254.857 1148.46 254.343C1130.06 253.701 1114.86 246.517 1102.85 232.793C1091.05 219.075 1085.49 202.404 1086.18 182.777C1086.89 162.332 1093.31 145.465 1105.45 132.174C1117.78 118.89 1132.74 112.555 1150.32 113.169C1164.84 113.676 1173.16 118.706 1182.68 127.635C1192.2 136.36 1194 147.383 1194.15 160.693C1187.57 161.487 1185.59 161.276 1174.76 160.693L1153.31 159.637C1151.87 159.587 1139.6 159.465 1116.47 159.272C1115.22 165.983 1114.48 172.405 1114.27 178.538C1113.54 199.187 1116.87 215.269 1124.25 226.785C1131.84 238.103 1142.79 244.012 1157.1 244.512C1165.27 244.798 1171.88 243.186 1176.92 239.678C1181.95 236.169 1187.51 229.301 1193.6 219.075C1194.48 217.468 1195.63 216.689 1197.06 216.739C1198.7 216.796 1199.49 217.54 1199.44 218.971ZM1174.94 155.48C1174.98 130.918 1167.09 122.681 1150.32 122.096C1133.76 121.517 1122.54 129.087 1117.6 153.477L1174.94 155.48Z" fill="#48416A"/>
<path d="M490.23 233.283C490.23 235.017 488.279 235.884 484.378 235.884C483.294 235.884 482.102 235.884 480.802 235.884C479.501 235.667 477.876 235.559 475.925 235.559L443.739 235.234C435.72 235.234 429.218 235.342 424.233 235.559C420.548 235.775 417.405 235.884 414.805 235.884C410.903 235.884 408.953 235.017 408.953 233.283C408.953 231.982 409.603 231.224 410.903 231.007C412.204 230.79 416.864 230.682 424.883 230.682C430.952 230.682 433.986 229.707 433.986 227.756C433.986 226.239 432.902 223.638 430.735 219.953C425.533 210.634 417.514 196.654 406.677 178.014L404.726 174.763C382.402 206.624 371.24 224.288 371.24 227.756C371.24 229.707 377.309 230.79 389.446 231.007C391.613 231.007 392.697 231.766 392.697 233.283C392.697 235.234 390.855 236.209 387.17 236.209C385.87 236.209 383.486 236.1 380.018 235.884C376.55 235.667 372.107 235.559 366.688 235.559H363.762C360.728 235.559 357.91 235.667 355.309 235.884L348.807 235.559C345.99 235.775 344.256 235.884 343.606 235.884C341.221 235.884 340.029 235.017 340.029 233.283C340.029 231.549 342.413 230.574 347.182 230.357C354.551 229.923 360.294 227.323 364.413 222.554L391.397 181.916C392.914 179.748 395.948 175.305 400.5 168.586C396.815 162.301 387.495 144.853 372.54 116.243C368.205 107.79 364.846 102.805 362.462 101.288C360.294 99.7711 354.876 98.9041 346.206 98.6874C342.955 98.6874 341.33 97.9288 341.33 96.4116C341.33 94.6777 342.847 93.8108 345.881 93.8108L382.619 94.461C386.303 94.461 391.288 94.3526 397.574 94.1359C404.726 93.9191 409.82 93.8108 412.854 93.8108C418.489 93.8108 421.307 94.6777 421.307 96.4116C421.307 98.1456 417.514 99.1209 409.928 99.3376C400.391 99.5544 395.623 100.746 395.623 102.914C395.623 104.431 397.682 108.874 401.8 116.243C408.736 129.248 413.938 139.109 417.405 145.828L418.706 148.429C425.208 139.543 431.71 129.79 438.212 119.169C444.931 108.332 448.291 102.047 448.291 100.313C448.291 99.0125 445.69 98.4707 440.488 98.6874L433.661 99.0125C432.144 99.0125 431.385 98.1456 431.385 96.4116C431.385 94.6777 432.794 93.8108 435.612 93.8108C434.311 93.8108 437.996 94.0275 446.665 94.461C448.833 94.6777 451 94.7861 453.167 94.7861C466.605 94.1359 472.457 93.8108 470.723 93.8108H474.3C475.817 93.594 476.901 93.4857 477.551 93.4857C480.152 93.4857 481.452 94.1359 481.452 95.4363C481.452 96.52 480.802 97.387 479.501 98.0372C478.418 98.4707 475.492 98.6874 470.723 98.6874C464.438 98.6874 460.32 99.5544 458.369 101.288C456.419 103.022 454.36 105.731 452.192 109.416L446.015 119.82C443.197 124.588 439.079 130.982 433.661 139.001L422.932 154.931L428.459 164.36C430.193 167.394 434.636 175.413 441.789 188.418C445.257 194.486 451.217 204.782 459.67 219.303C462.487 224.071 465.197 227.214 467.797 228.731C470.398 230.032 474.733 230.682 480.802 230.682C487.087 230.682 490.23 231.549 490.23 233.283Z" fill="#48416A"/>
<path d="M174.259 198.584C174.259 199.451 174.042 204.761 173.609 214.514C173.175 224.268 172.958 233.587 172.958 242.474V253.202C151.718 252.119 109.67 251.577 46.8158 251.577C39.2299 251.577 31.7524 251.685 24.3832 251.902C17.0141 251.902 12.0291 251.902 9.42819 251.902H6.17709C2.05903 251.902 0 250.927 0 248.976C0 247.676 0.598864 246.606 3.61602 246.606C4.26624 246.606 6.71894 246.375 14.3048 245.725C19.9401 245.291 23.2995 242.523 24.3832 240.572C25.6837 238.621 26.3339 235.105 26.3339 226.869V44.1568C26.3339 37.8714 25.3586 34.1868 23.4079 33.1031C21.674 31.8026 15.822 31.1524 5.85198 31.1524C2.38414 31.1524 0.650219 30.1771 0.650219 28.2264C0.650219 26.2758 3.03436 25.3004 7.80263 25.3004L63.3964 25.6256C65.3471 25.6256 77.5929 25.5172 100.134 25.3004C122.675 25.3004 137.847 25.3004 145.649 25.3004C152.151 25.3004 158.112 24.867 163.53 24C163.964 33.3198 164.939 46.2158 166.456 62.6881L167.757 76.6678C167.973 77.7515 168.082 79.1603 168.082 80.8942C168.082 83.0616 167.106 84.1453 165.156 84.1453C162.772 84.1453 161.038 81.4361 159.954 76.0176C155.836 56.511 149.117 44.1568 139.797 38.9551C132.862 35.0537 114.655 33.1031 85.1788 33.1031H58.5198V128.36H66.3224C90.5973 128.36 105.336 126.518 110.537 122.833C115.956 119.149 119.64 108.42 121.591 90.6475C122.025 86.096 123.217 83.8202 125.167 83.8202C127.551 83.8202 128.743 85.7709 128.743 89.6722C128.743 93.5735 128.527 99.3171 128.093 106.903C127.66 114.489 127.443 120.233 127.443 124.134C127.443 147.325 127.877 163.255 128.743 171.925C128.96 174.092 129.069 175.935 129.069 177.452C129.069 180.269 127.877 181.678 125.492 181.678C123.975 181.678 122.892 180.811 122.241 179.077C121.808 177.127 120.941 171.058 119.64 160.871C117.906 148.084 112.596 140.173 103.71 137.138C99.8087 135.838 89.6219 135.188 73.1497 135.188H58.5198V244.424C106.203 244.424 134.162 243.449 142.398 241.498C156.703 238.247 164.831 224.376 166.781 199.884C167.215 194.466 168.624 191.757 171.008 191.757C173.175 191.757 174.259 194.032 174.259 198.584Z" fill="#48416A"/>
<mask id="mask0_435_2" style="mask-type:alpha" maskUnits="userSpaceOnUse" x="201" y="57" width="27" height="209">
<path d="M210.277 249.5V65.1098H201V57H228V64.7407V249.5C228 263.032 224.677 266 219.692 266C214.708 266 210.277 262.511 210.277 249.5Z" fill="#C4C4C4"/>
</mask>
<g mask="url(#mask0_435_2)">
<rect x="201" y="63" width="36" height="208" fill="#48416A"/>
</g>
<mask id="path-14-outside-1_435_2" maskUnits="userSpaceOnUse" x="192" y="48" width="45" height="227" fill="black">
<rect fill="white" x="192" y="48" width="45" height="227"/>
<path d="M210.277 249.5V65.1098H201V57H228V64.7407V249.5C228 263.032 224.677 266 219.692 266C214.708 266 210.277 262.511 210.277 249.5Z"/>
</mask>
<path d="M210.277 65.1098H219.277V56.1098H210.277V65.1098ZM201 65.1098H192L201 74.1098V65.1098ZM201 57V48L192 57H201ZM228 57H237L228 48V57ZM201.277 65.1098V249.5H219.277V65.1098H201.277ZM201.277 249.5C201.277 256.734 202.455 263.045 205.717 267.754C209.418 273.097 214.795 275 219.692 275V257C219.492 257 219.653 256.967 219.98 257.122C220.359 257.302 220.531 257.529 220.514 257.504C220.314 257.217 219.277 255.277 219.277 249.5H201.277ZM219.692 275C221.789 275 224.391 274.694 227.012 273.427C229.751 272.102 231.899 270.022 233.442 267.44C236.22 262.789 237 256.547 237 249.5H219C219 252.554 218.809 254.712 218.543 256.205C218.272 257.724 217.978 258.227 217.989 258.209C218.078 258.06 218.461 257.568 219.175 257.223C219.77 256.935 220.088 257 219.692 257V275ZM237 249.5V64.7407H219V249.5H237ZM210.277 56.1098H201V74.1098H210.277V56.1098ZM210 65.1098V57H192V65.1098H210ZM201 66H228V48H201V66ZM219 57V64.7407H237V57H219Z" fill="#48416A" mask="url(#path-14-outside-1_435_2)"/>
<mask id="mask1_435_2" style="mask-type:alpha" maskUnits="userSpaceOnUse" x="237" y="255" width="27" height="20">
<rect x="237" y="255" width="27" height="20" fill="#C4C4C4"/>
</mask>
<g mask="url(#mask1_435_2)">
<path d="M263 271.475C263 274.288 261.231 275.694 257.693 275.694H252.794C252.249 275.694 245.037 275.381 231.156 274.756L218.5 274.288C216.323 274.288 205.436 274.756 185.839 275.694C184.206 276.006 182.573 276.163 180.94 276.163C176.858 276.475 174.817 275.069 174.817 271.944C174.817 269.757 176.313 268.663 179.307 268.663H189.922C197.543 268.663 201.353 266.788 201.353 263.038C201.625 261.163 201.761 248.976 201.761 226.476V-12.1121C201.761 -22.4244 201.489 -28.0493 200.945 -28.9867C200.128 -31.4867 197.951 -32.7367 194.413 -32.7367H191.147L179.716 -32.2679C175.905 -32.2679 174 -33.6742 174 -36.4866C174 -38.9865 177.402 -40.3928 184.206 -40.7052C197.271 -41.6427 200.097 -41.8858 212.411 -46.2359L221.883 -50.586L235.239 -57.1111C235.239 -47.3234 235.511 -34.2991 235.239 -15.862L234.83 17.4184L235.239 247.101C235.239 256.476 235.375 262.1 235.647 263.975C235.919 265.538 236.872 266.632 238.505 267.257C238.777 267.569 243.812 267.882 253.61 268.194C259.87 268.194 263 269.288 263 271.475Z" fill="#48416A"/>
</g>
<mask id="mask2_435_2" style="mask-type:alpha" maskUnits="userSpaceOnUse" x="175" y="255" width="26" height="20">
<rect x="175" y="255" width="26" height="20" fill="#C4C4C4"/>
</mask>
<g mask="url(#mask2_435_2)">
<path d="M264 271.475C264 274.288 262.231 275.694 258.693 275.694H253.794C253.249 275.694 246.037 275.381 232.156 274.756L219.5 274.288C217.323 274.288 206.436 274.756 186.839 275.694C185.206 276.006 183.573 276.163 181.94 276.163C177.858 276.475 175.817 275.069 175.817 271.944C175.817 269.756 177.313 268.663 180.307 268.663H190.922C198.543 268.663 202.353 266.788 202.353 263.038C202.625 261.163 202.761 248.976 202.761 226.476V-12.1121C202.761 -22.4244 202.489 -28.0493 201.945 -28.9867C201.128 -31.4867 198.951 -32.7367 195.413 -32.7367H192.147L180.716 -32.2679C176.905 -32.2679 175 -33.6742 175 -36.4866C175 -38.9865 178.402 -40.3928 185.206 -40.7052C198.271 -41.6427 201.097 -41.8858 213.411 -46.2359L222.883 -50.586L236.239 -57.1111C236.239 -47.3234 236.511 -34.2991 236.239 -15.862L235.83 17.4184L236.239 247.101C236.239 256.476 236.375 262.1 236.647 263.975C236.919 265.538 237.872 266.632 239.505 267.257C239.777 267.569 244.812 267.882 254.61 268.194C260.87 268.194 264 269.288 264 271.475Z" fill="#48416A"/>
</g>
<rect x="201" y="249" width="36" height="26" fill="#48416A"/>
<path d="M210.287 32.51C208.365 31.9064 204.118 29.5593 202.51 25C201.906 26.922 199.559 31.1681 195 32.7768C196.922 33.3804 201.168 35.7274 202.777 40.2867C203.38 38.3648 205.727 34.1187 210.287 32.51Z" fill="#48416A"/>
<path d="M241.42 23.9616C237.847 22.8395 229.953 18.4761 226.962 9.99988C225.84 13.573 221.476 21.4669 213 24.4577C216.573 25.5798 224.467 29.9432 227.458 38.4194C228.58 34.8463 232.943 26.9524 241.42 23.9616Z" fill="#48416A"/>
<path d="M217.407 9.53441C214.967 8.76811 209.577 5.7884 207.534 0C206.768 2.44006 203.788 7.83078 198 9.87317C200.44 10.6395 205.831 13.6192 207.873 19.4076C208.639 16.9675 211.619 11.5768 217.407 9.53441Z" fill="#48416A"/>
</svg>
